<?xml version="1.0" encoding="UTF-8" standalone="no"?>
<!-- Created with Inkscape (http://www.inkscape.org/) -->

<svg
   xmlns:dc="http://purl.org/dc/elements/1.1/"
   xmlns:cc="http://creativecommons.org/ns#"
   xmlns:rdf="http://www.w3.org/1999/02/22-rdf-syntax-ns#"
   xmlns:svg="http://www.w3.org/2000/svg"
   xmlns="http://www.w3.org/2000/svg"
   version="1.1"
   width="965.71625"
   height="1080"
   id="svg3085"
   xml:space="preserve"><metadata
     id="metadata3091"><rdf:RDF><cc:Work
         rdf:about=""><dc:format>image/svg+xml</dc:format><dc:type
           rdf:resource="http://purl.org/dc/dcmitype/StillImage" /><dc:title></dc:title></cc:Work></rdf:RDF></metadata><defs
     id="defs3089"><clipPath
       id="clipPath3099"><path
         d="m 0,864 772.573,0 0,-864 L 0,0 0,864 z"
         id="path3101" /></clipPath></defs><g
     id="layer2"
     style="display:none"><rect
       width="1468.983"
       height="1592.5424"
       x="-196.77966"
       y="-233.38983"
       id="rect3152"
       style="fill:#ff0000" /></g><g
     id="layer3"><rect
       width="482.15091"
       height="268.58072"
       x="250.78322"
       y="466.79462"
       id="rect3195"
       style="fill:#000000" /><rect
       width="77.661896"
       height="210.3343"
       x="721.60846"
       y="601.08496"
       id="rect3201"
       style="fill:#000000" /><rect
       width="90.605545"
       height="297.70395"
       x="174.73927"
       y="539.60266"
       id="rect3203"
       style="fill:#000000" /><rect
       width="12.012712"
       height="26.313559"
       x="167.03391"
       y="660.69916"
       id="rect3207"
       style="fill:#000000" /><rect
       width="14.872881"
       height="23.45339"
       x="791.69495"
       y="645.82629"
       id="rect3209"
       style="fill:#000000" /></g><g
     transform="matrix(1.25,0,0,-1.25,0,1080)"
     id="g3093"
     style="display:inline"><path
       d="m 106.67911,244.32303 c 0,-2.60064 41.587,-167.274245 43.03824,-170.420134 3.99914,-8.669039 13.72931,-14.190942 23.23981,-13.188664 2.75191,0.290014 52.24292,16.357629 127.06771,41.253458 101.25679,33.69033 122.06803,40.85744 119.72876,41.23298 -1.55728,0.25 -9.18902,0.96897 -16.95942,1.5977 l -14.128,1.14316 -105.19627,-35.10988 C 183.66503,77.521177 178.01952,75.736012 173.31467,75.999474 c -5.50814,0.308445 -9.82463,2.82586 -11.97478,6.983794 -0.63635,1.230567 -9.00203,33.819962 -18.59039,72.420882 -9.58837,38.60092 -17.79436,71.52401 -18.23554,73.16242 -0.61985,2.30196 -2.04807,3.93471 -6.28483,7.18484 -3.01548,2.31326 -6.84784,5.34992 -8.51636,6.74812 -1.66851,1.39821 -3.03366,2.21878 -3.03366,1.8235 z"
       transform="matrix(0.8,0,0,-0.8,0,864)"
       id="path3180"
       style="fill:#ffffff" /><path
       d="m 160.88064,206.85776 c 0,-1.50981 23.68129,-95.85301 24.21184,-96.45685 0.39362,-0.44799 128.56162,41.63338 135.15684,44.37602 0.66741,0.27755 -6.24935,2.06814 -15.37058,3.97909 -52.40007,10.97815 -96.57648,25.5721 -133.67119,44.15911 -10.22361,5.12273 -10.32691,5.16217 -10.32691,3.94263 z"
       transform="matrix(0.8,0,0,-0.8,0,864)"
       id="path3182"
       style="fill:#ffffff" /><path
       d="m 856.14599,233.65727 -8.14109,-6.13512 -18.00325,-72.01425 c -12.36696,-49.46874 -18.52027,-72.719684 -19.65471,-74.267546 -2.34534,-3.200016 -7.17625,-5.431987 -11.75708,-5.431987 -2.94933,0 -28.88477,8.336637 -108.58245,34.902523 l -104.70761,34.90253 -11.78525,-0.95683 c -6.4819,-0.52627 -14.33354,-1.18289 -17.44811,-1.45917 l -5.66285,-0.50234 122.1557,-40.75033 c 85.06397,-28.376781 123.65991,-40.89783 127.1096,-41.236089 9.74828,-0.955866 18.88616,4.106177 23.08872,12.790297 1.97407,4.079193 42.3517,164.230312 41.7725,165.683642 -0.13366,0.33538 -3.90651,-2.15102 -8.38412,-5.52533 z"
       transform="matrix(0.8,0,0,-0.8,0,864)"
       id="path3184"
       style="fill:#ffffff" /><path
       d="m 799.56885,199.94915 c -34.76902,-17.04923 -81.43769,-31.956 -131.79147,-42.09645 l -15.29863,-3.0809 67.42624,-22.47723 c 37.08444,-12.36248 67.59235,-22.31113 67.79537,-22.10811 0.37627,0.37627 23.59867,93.30938 23.59867,94.43889 0,1.00866 -0.73183,0.71691 -11.73018,-4.6762 l 0,0 z"
       transform="matrix(0.8,0,0,-0.8,0,864)"
       id="path3186"
       style="fill:#ffffff" /><path
       d="m 111.61456,1018.5808 c -2.71375,-1.1821 -6.90021,-4.4858 -9.30325,-7.3416 -3.600517,-4.279 -4.379062,-6.8074 -4.425415,-14.37162 -0.03093,-5.04851 8.843285,-123.67909 19.720485,-263.62354 13.83232,-177.96447 19.32031,-255.73574 18.25826,-258.74054 -0.83517,-2.36285 -6.88387,-8.72418 -13.44156,-14.1363 C 92.805778,435.92388 78.34442,406.00098 78.179589,368.82023 78.028921,334.83401 89.620127,306.95044 115.21247,279.73467 161.22651,230.80176 249.7213,195.3521 364.90492,179.7117 c 46.80266,-6.35518 64.67386,-7.42762 123.77364,-7.42762 59.01496,0 76.7014,1.05818 123.77365,7.40542 142.69216,19.24064 245.04326,70.39453 275.95763,137.9204 9.51031,20.77328 13.24082,51.40515 8.93938,73.40306 -5.48039,28.02718 -19.31728,49.46039 -48.38677,74.95066 -6.19011,5.42793 -8.37841,8.48202 -8.37841,11.69323 0,2.39053 9.09717,120.99796 20.21594,263.57208 l 20.21596,259.22567 -3.32466,6.8678 c -2.41124,4.981 -5.21639,7.7836 -10.21006,10.201 l -6.88541,3.3332 -372.02358,-0.063 c -305.65538,-0.052 -372.90382,-0.4468 -376.95767,-2.2125 z m 750.68161,-15.3993 c 3.53627,-3.32219 4.17517,-5.32638 4.17517,-13.09739 0,-8.09389 -37.21942,-493.08138 -39.62297,-516.30696 l -0.94267,-9.109 6.12571,-3.60694 c 11.02022,-6.48894 25.90249,-19.56421 32.88447,-28.89165 14.54918,-19.43672 21.05879,-39.27436 21.05317,-64.1583 -0.01,-40.95957 -20.89687,-75.83427 -63.34928,-105.77017 -17.74584,-12.51371 -60.1388,-32.76369 -88.01186,-42.04091 -49.45898,-16.46183 -95.58513,-25.52935 -167.45847,-32.91914 -31.46765,-3.2354 -131.50652,-2.70403 -165.84051,0.88088 -97.49861,10.18013 -170.31545,30.07737 -227.03957,62.03868 -18.82401,10.60643 -28.98622,17.93612 -42.13525,30.39087 -28.00436,26.52571 -41.073448,54.09848 -41.05224,86.61081 0.02442,37.42066 15.54383,66.9913 46.27836,88.17861 l 14.08215,9.70774 -0.67097,8.08978 c -0.36903,4.44938 -9.65378,123.71935 -20.63278,265.04436 -18.15576,233.70633 -19.74234,257.34561 -17.53598,261.27653 1.33422,2.3771 4.22404,5.2344 6.42183,6.3497 3.17423,1.6108 79.58069,1.9483 371.54625,1.6414 l 367.55027,-0.3864 4.17517,-3.9225 0,0 z"
       transform="matrix(0.8,0,0,-0.8,0,864)"
       id="path3188"
       style="fill:#ffffff" /><path
       d="m 151.5163,858.65647 c 30.93189,-397.49331 31.36262,-403.46203 29.42287,-407.71931 -1.07515,-2.35971 -9.34722,-9.22598 -19.17076,-15.91275 -24.91252,-16.95772 -35.44169,-31.54626 -39.58771,-54.85022 -4.1636,-23.40279 4.11919,-48.17252 23.02613,-68.85972 43.75739,-47.87756 135.28056,-79.90833 266.61882,-93.30978 26.9683,-2.75178 126.89978,-2.74075 153.70583,0.017 123.93692,12.75023 210.00402,41.11661 258.38316,85.15906 37.12928,33.80104 42.17002,80.85175 12.37193,115.48053 -2.53071,2.94097 -12.23101,10.59264 -21.55621,17.00373 -11.06617,7.608 -17.47186,13.12641 -18.44328,15.88864 -1.02251,2.90753 4.66588,83.6736 18.1745,258.04882 10.81459,139.59918 20.06876,256.91104 20.56486,260.69301 l 0.90201,6.87631 -346.81736,0 -346.81733,0 9.22254,-118.51529 0,0 z m 72.34011,-116.70423 c 43.53903,-34.175 89.74117,-57.63055 113.51922,-57.63055 6.68897,0 11.34972,-3.95656 11.34972,-9.63491 0,-6.34925 -2.87968,-8.16261 -12.96251,-8.16261 -13.85505,0 -32.73926,5.60824 -54.18267,16.09118 -35.21419,17.21499 -85.2306,53.28645 -86.27744,62.22266 -0.6094,5.20205 3.58162,10.67375 8.1755,10.67375 1.70682,0 10.877,-6.10178 20.37818,-13.55952 z m 555.52238,2.79204 c 3.73635,-3.38135 3.7906,-8.96514 0.12734,-13.11518 -1.55729,-1.76425 -7.92799,-7.20756 -14.15712,-12.09623 -48.572,-38.11978 -95.19168,-61.09848 -123.95785,-61.09848 -9.93691,0 -12.75938,1.83554 -12.75938,8.2978 0,6.56603 3.46415,8.89901 14.83551,9.99118 26.97403,2.59072 67.84088,24.05133 111.36507,58.4817 8.45382,6.6875 16.76942,12.17211 18.4791,12.188 1.70968,0.0162 4.43998,-1.17604 6.06733,-2.64879 l 0,0 z M 561.54473,696.42583 c 6.26112,-3.00669 15.72616,-9.24882 21.03343,-13.87137 11.26007,-9.80734 27.34407,-27.73308 30.95147,-34.49562 3.05174,-5.72089 2.05064,-16.01524 -1.99182,-20.48211 -3.35817,-3.71073 -12.89221,-6.60647 -17.74294,-5.38901 -1.91617,0.48093 -11.24684,9.14526 -20.73484,19.25409 -20.32923,21.65945 -31.40217,28.59718 -39.97496,25.04622 -5.77107,-2.39047 -12.48065,-11.72701 -17.41487,-24.2332 -6.22489,-15.77751 -6.11293,-17.98591 1.16342,-22.94616 16.95542,-11.55842 22.11526,-39.83051 10.59885,-58.07369 -5.52173,-8.747 -10.04038,-12.66472 -19.91604,-17.26749 -7.54113,-3.51472 -10.30476,-3.94484 -21.2685,-3.31016 -10.76046,0.62291 -13.79722,1.49699 -20.78945,5.98389 -14.21067,9.11897 -22.88364,27.21251 -20.69568,43.17534 1.82239,13.29587 11.13741,27.10143 22.87889,33.9083 2.7949,1.62029 2.76442,2.18706 -0.69621,12.94365 -9.02986,28.06718 -18.93916,33.91377 -39.18795,23.12129 -5.27967,-2.81404 -16.24145,-11.36899 -24.35951,-19.01098 -13.93926,-13.12184 -15.15752,-13.89457 -21.90548,-13.89457 -6.02608,0 -7.88485,0.82766 -11.86648,5.28389 -5.34268,5.97949 -6.23228,13.79699 -2.41096,21.18661 2.80943,5.43284 22.00928,23.76574 32.31659,30.85734 4.12842,2.84044 12.4059,7.48548 18.39436,10.32232 9.73146,4.60993 12.43506,5.15787 25.44974,5.15787 20.01967,0 28.86182,-4.33593 42.23492,-20.71077 l 5.02194,-6.14914 6.28306,8.23888 c 16.90992,22.17377 39.33462,27.50144 64.62902,15.35458 z M 185.68471,678.74002 c 27.75709,-21.19411 60.47063,-29.71441 120.6316,-31.4187 38.94782,-1.10335 39.09599,-1.14168 39.14836,-10.12674 0.0471,-8.0941 -2.59135,-8.70385 -37.04414,-8.56064 -62.07329,0.25801 -110.43974,13.593 -136.45689,37.62215 -5.03949,4.65443 -5.88583,11.54414 -1.90688,15.5231 3.83629,3.83628 7.57589,3.10905 15.62795,-3.03917 l 0,0 z m 618.9807,-12.53944 c 1.06785,-1.06785 1.94155,-4.39158 1.94155,-7.38608 0,-5.18663 -0.55562,-5.69872 -11.73019,-10.81078 -25.6993,-11.75678 -72.33215,-19.34103 -131.60225,-21.4035 -32.49112,-1.13062 -34.64274,-0.65565 -34.64274,7.64738 0,8.34655 1.70238,8.80527 40.63367,10.94898 55.99548,3.08334 93.69538,9.19679 116.30808,18.86058 10.05352,4.2965 16.24382,4.99148 19.09188,2.14342 z M 371.37674,577.79305 c 17.27136,-8.94039 26.27477,-23.03274 27.23127,-42.62307 0.51618,-10.57218 0.013,-13.73331 -3.36345,-21.10726 -5.49628,-12.00546 -12.77937,-19.74634 -23.52493,-25.00365 -7.50613,-3.67242 -11.3253,-4.47656 -21.32725,-4.49061 -14.72799,-0.0207 -24.99155,4.07073 -35.1456,14.01028 -24.57962,24.06035 -15.74947,67.9068 16.21319,80.50731 11.58707,4.56793 29.72971,3.98025 39.91677,-1.293 l 0,0 z m 278.45004,0.0959 c 31.42334,-15.37659 37.53543,-56.97123 11.70427,-79.65127 -30.08296,-26.4132 -74.33963,-12.28636 -81.15933,25.90628 -4.29888,24.0751 8.71025,47.17212 31.41831,55.78156 9.41952,3.57127 28.68459,2.53979 38.03675,-2.03657 l 0,0 z"
       transform="matrix(0.8,0,0,-0.8,0,864)"
       id="path3190"
       style="fill:#ffffff" /></g></svg>